<?xml version="1.0" standalone="no"?>
<!DOCTYPE svg PUBLIC "-//W3C//DTD SVG 20010904//EN"
 "http://www.w3.org/TR/2001/REC-SVG-20010904/DTD/svg10.dtd">
<svg version="1.0" xmlns="http://www.w3.org/2000/svg"
 width="1182.000000pt" height="1181.000000pt" viewBox="0 0 1182.000000 1181.000000"
 preserveAspectRatio="xMidYMid meet">
<metadata>
Created by potrace 1.16, written by Peter Selinger 2001-2019
</metadata>
<g transform="translate(0.000000,1181.000000) scale(0.100000,-0.100000)"
fill="#000000" stroke="none">
<path d="M5660 11804 c-182 -10 -371 -27 -510 -45 -1161 -151 -2232 -633
-3120 -1403 -149 -130 -449 -430 -576 -576 -701 -808 -1158 -1753 -1354 -2799
-67 -361 -94 -669 -94 -1076 0 -407 27 -715 95 -1077 195 -1045 652 -1989
1353 -2798 124 -143 436 -456 576 -576 980 -844 2126 -1325 3420 -1436 187
-16 733 -16 920 0 1294 111 2440 592 3420 1436 140 120 453 433 576 576 843
973 1324 2120 1436 3420 16 187 16 723 0 910 -62 712 -220 1334 -503 1967
-226 505 -550 1011 -933 1453 -123 143 -436 456 -576 576 -965 831 -2108 1317
-3360 1429 -160 15 -639 26 -770 19z m1120 -4470 l865 -1165 5 313 5 313 116
-1 c128 -1 162 -12 203 -67 20 -27 21 -43 26 -329 l5 -301 735 844 c404 464
748 858 765 875 40 41 95 57 150 43 42 -11 209 -142 203 -160 -2 -5 -406 -471
-898 -1036 -492 -565 -896 -1032 -898 -1039 -2 -7 238 -337 534 -735 l536
-722 -23 -19 c-76 -59 -168 -116 -196 -122 -53 -12 -107 10 -150 58 -21 24
-198 260 -393 525 -195 264 -358 480 -362 481 -5 0 -8 -144 -8 -321 l0 -321
-122 4 c-110 3 -127 6 -156 26 -65 47 -66 56 -72 381 l-5 294 -199 -229 c-110
-126 -205 -236 -212 -244 -11 -13 17 -54 172 -264 l184 -248 -72 -55 c-128
-97 -197 -113 -263 -61 -15 11 -80 92 -146 180 -66 87 -124 156 -129 153 -6
-3 -247 -278 -536 -611 -290 -332 -530 -604 -534 -604 -4 0 -244 272 -534 605
-289 332 -531 607 -536 610 -5 3 -63 -66 -129 -153 -66 -88 -131 -169 -146
-180 -37 -30 -95 -37 -141 -17 -30 12 -95 57 -192 130 -2 2 80 115 182 251
156 210 183 251 172 264 -7 8 -102 118 -212 244 l-199 229 -3 -351 -2 -352
-116 0 c-99 0 -122 3 -154 21 -72 41 -74 51 -80 356 l-5 273 -365 -492 c-201
-271 -380 -510 -399 -530 -37 -42 -95 -63 -144 -52 -28 6 -120 63 -196 122
l-23 19 536 722 c296 398 536 728 534 735 -2 7 -406 474 -898 1039 -492 565
-896 1031 -898 1036 -6 18 161 149 203 160 55 14 110 -2 150 -43 17 -17 361
-411 765 -875 l735 -844 3 352 2 351 88 0 c143 -1 196 -21 237 -91 18 -31 20
-57 25 -287 l5 -253 865 1165 c476 641 867 1166 870 1166 3 0 394 -525 870
-1166z"/>
<path d="M5065 6783 c-461 -620 -839 -1132 -842 -1138 -3 -11 568 -676 586
-683 5 -1 252 326 551 728 298 401 545 730 550 730 4 0 252 -329 550 -730 298
-402 546 -730 551 -728 18 7 589 672 586 682 -9 22 -1679 2266 -1687 2266 -4
0 -385 -507 -845 -1127z"/>
<path d="M5485 5274 c-231 -311 -424 -572 -428 -580 -5 -9 119 -159 419 -504
235 -269 430 -490 434 -490 6 0 852 966 858 980 3 7 -845 1153 -856 1157 -4 2
-196 -252 -427 -563z"/>
</g>
</svg>
